<svg xmlns="http://www.w3.org/2000/svg" viewBox="-0.77 -53.09 458.79 117.58" width="458.79" height="117.58" aria-labelledby="SvgTitle-22a52cc5-edc4-4350-9383-ffea8811d663"><title id="SvgTitle-22a52cc5-edc4-4350-9383-ffea8811d663">CULT OF THE LOLCOW</title><path d="M24.93 0.7L24.93 0.7Q17.58 0.7 12.23-2.51Q6.89-5.73 4.5-11.92Q2.11-18.11 3.55-27L3.55-27Q4.99-35.61 9.21-41.41Q13.43-47.21 19.46-50.15Q25.49-53.09 32.31-53.09L32.31-53.09Q37.44-53.09 41.52-51.73Q45.6-50.38 48.41-47.76Q51.22-45.14 52.54-41.36Q53.86-37.58 53.47-32.7L53.47-32.7L39.27-32.7Q39.41-34.52 39.06-36Q38.71-37.48 37.85-38.53Q36.98-39.59 35.58-40.15Q34.17-40.71 32.24-40.71L32.24-40.71Q28.48-40.71 25.54-38.87Q22.61-37.02 20.65-33.57Q18.7-30.13 17.89-25.38L17.89-25.38Q17.16-20.78 17.84-17.74Q18.53-14.7 20.53-13.18Q22.54-11.67 25.77-11.67L25.77-11.67Q27.91-11.67 29.71-12.18Q31.5-12.69 32.92-13.64Q34.35-14.59 35.35-15.93Q36.35-17.26 36.88-18.91L36.88-18.91L51.22-18.91Q50.41-15.57 48.3-12.13Q46.2-8.68 42.87-5.77Q39.55-2.85 35.05-1.07Q30.55 0.7 24.93 0.7ZM87.12-20.04L92.53-52.38L106.73-52.38L101.18-18.84Q100.2-12.87 96.61-8.49Q93.02-4.11 87.54-1.76Q82.05 0.6 75.3 0.63L75.3 0.63Q68.55 0.6 63.86-1.76Q59.17-4.11 57.08-8.49Q54.98-12.87 55.97-18.84L55.97-18.84L61.52-52.38L75.73-52.38L70.38-20.04Q70-17.61 70.75-15.73Q71.51-13.85 73.25-12.76Q74.99-11.67 77.41-11.67L77.41-11.67Q79.88-11.67 81.91-12.76Q83.95-13.85 85.34-15.73Q86.73-17.61 87.12-20.04L87.12-20.04ZM138.52 0L103.08 0L111.8-52.38L126-52.38L119.25-11.46L140.41-11.46L138.52 0ZM163.62-40.92L147.87-40.92L149.84-52.38L195.33-52.38L193.36-40.92L177.61-40.92L170.86 0L156.87 0L163.62-40.92ZM228.83 0.7L228.83 0.7Q221.48 0.7 216.09-2.53Q210.69-5.77 208.23-11.97Q205.77-18.18 207.25-27.07L207.25-27.07Q208.65-35.61 212.89-41.4Q217.13-47.18 223.22-50.13Q229.32-53.09 236.29-53.09L236.29-53.09Q243.6-53.09 248.99-49.87Q254.39-46.65 256.87-40.45Q259.35-34.24 257.84-25.24L257.84-25.24Q256.43-16.73 252.18-10.95Q247.92-5.17 241.84-2.23Q235.76 0.7 228.83 0.7ZM229.43-11.67L229.43-11.67Q233.16-11.67 236.02-13.46Q238.89-15.26 240.8-18.7Q242.72-22.15 243.53-27.07L243.53-27.07Q244.27-31.57 243.63-34.59Q243-37.62 241.01-39.16Q239.03-40.71 235.69-40.71L235.69-40.71Q232-40.71 229.11-38.9Q226.23-37.09 224.31-33.64Q222.4-30.2 221.55-25.24L221.55-25.24Q220.82-20.78 221.45-17.75Q222.08-14.73 224.09-13.2Q226.09-11.67 229.43-11.67ZM272.74 0L258.47 0L267.19-52.38L304.03-52.38L302.06-40.92L279.49-40.92L278.02-31.92L298.41-31.92L296.44-20.46L276.12-20.46L272.74 0ZM332.58-40.92L316.83-40.92L318.8-52.38L364.29-52.38L362.32-40.92L346.57-40.92L339.82 0L325.83 0L332.58-40.92ZM373.5 0L359.23 0L367.95-52.38L382.15-52.38L378.77-31.92L397.62-31.92L400.99-52.38L415.2-52.38L406.48 0L392.27 0L395.65-20.46L376.88-20.46L373.5 0ZM449.23 0L411.54 0L420.26-52.38L458.02-52.38L456.05-40.92L432.56-40.92L431.09-31.92L452.67-31.92L450.77-20.46L429.19-20.46L427.71-11.46L451.13-11.46L449.23 0Z" fill="#000"></path><path d="M34.66 63.79L-0.77 63.79L7.95 11.41L22.15 11.41L15.4 52.33L36.56 52.33L34.66 63.79ZM64.58 64.49L64.58 64.49Q57.23 64.49 51.84 61.26Q46.44 58.02 43.98 51.82Q41.52 45.61 43 36.72L43 36.72Q44.4 28.18 48.64 22.39Q52.88 16.61 58.97 13.66Q65.07 10.7 72.04 10.7L72.04 10.7Q79.35 10.7 84.74 13.92Q90.14 17.14 92.62 23.34Q95.1 29.55 93.59 38.55L93.59 38.55Q92.18 47.05 87.93 52.84Q83.67 58.62 77.59 61.56Q71.51 64.49 64.58 64.49ZM65.18 52.12L65.18 52.12Q68.91 52.12 71.77 50.32Q74.64 48.53 76.55 45.09Q78.47 41.64 79.28 36.72L79.28 36.72Q80.02 32.22 79.38 29.2Q78.75 26.17 76.76 24.63Q74.78 23.08 71.44 23.08L71.44 23.08Q67.75 23.08 64.86 24.89Q61.98 26.7 60.06 30.14Q58.15 33.59 57.3 38.55L57.3 38.55Q56.57 43.01 57.2 46.04Q57.83 49.06 59.84 50.59Q61.84 52.12 65.18 52.12ZM129.66 63.79L94.22 63.79L102.94 11.41L117.14 11.41L110.39 52.33L131.55 52.33L129.66 63.79ZM159.36 64.49L159.36 64.49Q152.02 64.49 146.67 61.28Q141.33 58.06 138.94 51.87Q136.55 45.68 137.99 36.79L137.99 36.79Q139.43 28.18 143.65 22.38Q147.87 16.57 153.9 13.64Q159.93 10.7 166.75 10.7L166.75 10.7Q171.88 10.7 175.96 12.06Q180.04 13.41 182.85 16.03Q185.66 18.65 186.98 22.43Q188.3 26.21 187.91 31.09L187.91 31.09L173.71 31.09Q173.85 29.27 173.5 27.79Q173.14 26.31 172.28 25.26Q171.42 24.2 170.02 23.64Q168.61 23.08 166.68 23.08L166.68 23.08Q162.91 23.08 159.98 24.92Q157.04 26.77 155.09 30.21Q153.14 33.66 152.33 38.41L152.33 38.41Q151.59 43.01 152.28 46.05Q152.96 49.09 154.97 50.61Q156.97 52.12 160.21 52.12L160.21 52.12Q162.35 52.12 164.14 51.61Q165.94 51.1 167.36 50.15Q168.79 49.2 169.79 47.86Q170.79 46.53 171.32 44.88L171.32 44.88L185.66 44.88Q184.85 48.21 182.74 51.66Q180.63 55.11 177.31 58.02Q173.99 60.94 169.49 62.72Q164.99 64.49 159.36 64.49ZM213.19 64.49L213.19 64.49Q205.84 64.49 200.44 61.26Q195.05 58.02 192.59 51.82Q190.13 45.61 191.6 36.72L191.6 36.72Q193.01 28.18 197.24 22.39Q201.48 16.61 207.58 13.66Q213.68 10.7 220.64 10.7L220.64 10.7Q227.95 10.7 233.35 13.92Q238.75 17.14 241.22 23.34Q243.7 29.55 242.19 38.55L242.19 38.55Q240.79 47.05 236.53 52.84Q232.28 58.62 226.2 61.56Q220.11 64.49 213.19 64.49ZM213.79 52.12L213.79 52.12Q217.51 52.12 220.38 50.32Q223.24 48.53 225.16 45.09Q227.07 41.64 227.88 36.72L227.88 36.72Q228.62 32.22 227.99 29.2Q227.36 26.17 225.37 24.63Q223.38 23.08 220.04 23.08L220.04 23.08Q216.35 23.08 213.47 24.89Q210.59 26.7 208.67 30.14Q206.75 33.59 205.91 38.55L205.91 38.55Q205.17 43.01 205.8 46.04Q206.44 49.06 208.44 50.59Q210.45 52.12 213.79 52.12ZM269.58 63.79L256.01 63.79L249.26 11.41L265.08 11.41L266.91 43.61L267.33 43.61L281.11 11.41L293.63 11.41L296.79 43.75L297.21 43.75L309.66 11.41L325.55 11.41L301.36 63.79L287.79 63.79L283.78 34.54L283.36 34.54L269.58 63.79Z" fill="#000"></path></svg>