<svg xmlns="http://www.w3.org/2000/svg" viewBox="3.01 -53.09 143.61 53.79" width="143.61" height="53.79" aria-labelledby="SvgTitle-95cf0d0b-2699-4060-addd-c3b935bfa549"><title id="SvgTitle-95cf0d0b-2699-4060-addd-c3b935bfa549">CLC</title><path d="M24.93 0.7L24.93 0.7Q17.58 0.7 12.23-2.51Q6.89-5.73 4.5-11.92Q2.11-18.11 3.55-27L3.55-27Q4.99-35.61 9.21-41.41Q13.43-47.21 19.46-50.15Q25.49-53.09 32.31-53.09L32.31-53.09Q37.44-53.09 41.52-51.73Q45.6-50.38 48.41-47.76Q51.22-45.14 52.54-41.36Q53.86-37.58 53.47-32.7L53.47-32.7L39.27-32.7Q39.41-34.52 39.06-36Q38.71-37.48 37.85-38.53Q36.98-39.59 35.58-40.15Q34.17-40.71 32.24-40.71L32.24-40.71Q28.48-40.71 25.54-38.87Q22.61-37.02 20.65-33.57Q18.7-30.13 17.89-25.38L17.89-25.38Q17.16-20.78 17.84-17.74Q18.53-14.7 20.53-13.18Q22.54-11.67 25.77-11.67L25.77-11.67Q27.91-11.67 29.71-12.18Q31.5-12.69 32.92-13.64Q34.35-14.59 35.35-15.93Q36.35-17.26 36.88-18.91L36.88-18.91L51.22-18.91Q50.41-15.57 48.3-12.13Q46.2-8.68 42.87-5.77Q39.55-2.85 35.05-1.07Q30.55 0.7 24.93 0.7ZM88.28 0L52.84 0L61.56-52.38L75.76-52.38L69.01-11.46L90.18-11.46L88.28 0ZM117.98 0.7L117.98 0.7Q110.64 0.7 105.29-2.51Q99.95-5.73 97.56-11.92Q95.17-18.11 96.61-27L96.61-27Q98.05-35.61 102.27-41.41Q106.49-47.21 112.52-50.15Q118.55-53.09 125.37-53.09L125.37-53.09Q130.5-53.09 134.58-51.73Q138.66-50.38 141.47-47.76Q144.28-45.14 145.6-41.36Q146.92-37.58 146.53-32.7L146.53-32.7L132.33-32.7Q132.47-34.52 132.12-36Q131.77-37.48 130.9-38.53Q130.04-39.59 128.64-40.15Q127.23-40.71 125.3-40.71L125.3-40.71Q121.54-40.71 118.6-38.87Q115.66-37.02 113.71-33.57Q111.76-30.13 110.95-25.38L110.95-25.38Q110.21-20.78 110.9-17.74Q111.59-14.7 113.59-13.18Q115.59-11.67 118.83-11.67L118.83-11.67Q120.97-11.67 122.77-12.18Q124.56-12.69 125.98-13.64Q127.41-14.59 128.41-15.93Q129.41-17.26 129.94-18.91L129.94-18.91L144.28-18.91Q143.47-15.57 141.36-12.13Q139.25-8.68 135.93-5.77Q132.61-2.85 128.11-1.07Q123.61 0.7 117.98 0.7Z" fill="#000"></path></svg>
